<?xml version="1.0"?>
<!DOCTYPE svg PUBLIC "-//W3C//DTD SVG 1.1//EN" "http://www.w3.org/Graphics/SVG/1.1/DTD/svg11.dtd">
<svg width="323.33999999996087mm" height="178.3399999999861mm" viewBox="0 0 323.33999999996087 178.3399999999861" xmlns="http://www.w3.org/2000/svg" version="1.1">
<g id="Body" transform="translate(161.670000,89.170000) scale(1,-1)">
<path id="Body_f0000"  d="M -158.49999999997442 -74.99999999998975 L -158.49999999997442 74.99999999998978 L -158.49999999997442 74.99999999998978 L -158.49999999997442 -74.99999999998977 L -158.49999999997442 -74.99999999998977 Z " stroke="#191919" stroke-width="0.35 px" style="stroke-width:0.35;stroke-miterlimit:4;stroke-dasharray:none;stroke-linecap:square;fill:#cccce6;fill-opacity:1.0;fill-rule: evenodd"/>
<path id="Body_f0001"  d="M -158.49999999997442 74.99999999998978 A 11 11 0 0 0 -147.5 86L -147.49999999997436 85.99999999999562 A 11 11 0 0 1 -158.5 75L -158.49999999997442 74.99999999998978 Z " stroke="#191919" stroke-width="0.35 px" style="stroke-width:0.35;stroke-miterlimit:4;stroke-dasharray:none;stroke-linecap:square;fill:#cccce6;fill-opacity:1.0;fill-rule: evenodd"/>
<path id="Body_f0002"  d="M -147.4999999999744 -85.99999999999123 A 11 11 0 0 0 -158.5 -75L -158.49999999997442 -74.99999999998977 A 11 11 0 0 1 -147.5 -86L -147.4999999999744 -85.99999999999123 Z " stroke="#191919" stroke-width="0.35 px" style="stroke-width:0.35;stroke-miterlimit:4;stroke-dasharray:none;stroke-linecap:square;fill:#cccce6;fill-opacity:1.0;fill-rule: evenodd"/>
<path id="Body_f0003"  d="M -158.49999999997442 74.99999999998978 L -158.49999999997442 -74.99999999998977 A 11 11 0 0 1 -147.5 -86L 147.4999999999744 -85.99999999999123 A 11 11 0 0 1 158.5 -75L 158.4999999999872 74.99999999998978 A 11 11 0 0 1 147.5 86L -147.49999999997436 85.99999999999562 A 11 11 0 0 1 -158.5 75Z M -157.09999999997441 -74.99999999998975 A 9.6 9.6 0 0 1 -147.5 -84.6L 147.4999999999744 -84.59999999999121 A 9.6 9.6 0 0 1 157.1 -75L 157.1 74.99999999998978 A 9.6 9.6 0 0 1 147.5 84.6L -147.49999999997436 84.6 A 9.6 9.6 0 0 1 -157.1 75L -157.09999999997441 -74.99999999998975 Z " stroke="#191919" stroke-width="0.35 px" style="stroke-width:0.35;stroke-miterlimit:4;stroke-dasharray:none;stroke-linecap:square;fill:#cccce6;fill-opacity:1.0;fill-rule: evenodd"/>
<path id="Body_f0004"  d="M -147.49999999997436 86.0 L 147.49999999997436 86.0 L 147.49999999997436 85.99999999999562 L -147.49999999997436 85.99999999999562 L -147.49999999997436 85.99999999999562 Z " stroke="#191919" stroke-width="0.35 px" style="stroke-width:0.35;stroke-miterlimit:4;stroke-dasharray:none;stroke-linecap:square;fill:#cccce6;fill-opacity:1.0;fill-rule: evenodd"/>
<path id="Body_f0005"  d="M 147.4999999999744 -85.99999999999123 L -147.4999999999744 -85.99999999999123 L -147.4999999999744 -85.99999999999123 L 147.4999999999744 -85.99999999999123 L 147.4999999999744 -85.99999999999123 Z " stroke="#191919" stroke-width="0.35 px" style="stroke-width:0.35;stroke-miterlimit:4;stroke-dasharray:none;stroke-linecap:square;fill:#cccce6;fill-opacity:1.0;fill-rule: evenodd"/>
<path id="Body_f0006"  d="M 147.49999999997436 85.99999999999123 A 11 11 0 0 0 158.5 75L 158.4999999999872 74.99999999998978 A 11 11 0 0 1 147.5 86L 147.49999999997436 85.99999999999562 Z " stroke="#191919" stroke-width="0.35 px" style="stroke-width:0.35;stroke-miterlimit:4;stroke-dasharray:none;stroke-linecap:square;fill:#cccce6;fill-opacity:1.0;fill-rule: evenodd"/>
<path id="Body_f0007"  d="M 158.49999999997442 -74.99999999998978 A 11 11 0 0 0 147.5 -86L 147.4999999999744 -85.99999999999123 A 11 11 0 0 1 158.5 -75L 158.4999999999872 -74.99999999998978 Z " stroke="#191919" stroke-width="0.35 px" style="stroke-width:0.35;stroke-miterlimit:4;stroke-dasharray:none;stroke-linecap:square;fill:#cccce6;fill-opacity:1.0;fill-rule: evenodd"/>
<path id="Body_f0008"  d="M 158.5 74.99999999998978 L 158.5 -74.99999999998978 L 158.4999999999872 -74.99999999998978 L 158.4999999999872 74.99999999998978 L 158.4999999999872 74.99999999998978 Z " stroke="#191919" stroke-width="0.35 px" style="stroke-width:0.35;stroke-miterlimit:4;stroke-dasharray:none;stroke-linecap:square;fill:#cccce6;fill-opacity:1.0;fill-rule: evenodd"/>
<path id="Body_f0009"  d="M -157.09999999997441 -74.99999999998975 L -157.09999999997441 74.99999999998978 L -157.09999999997441 74.99999999998997 L -157.09999999997441 -74.9999999999899 L -157.09999999997441 -74.99999999998975 Z " stroke="#191919" stroke-width="0.35 px" style="stroke-width:0.35;stroke-miterlimit:4;stroke-dasharray:none;stroke-linecap:square;fill:#cccce6;fill-opacity:1.0;fill-rule: evenodd"/>
<path id="Body_f0010"  d="M -147.4999999999744 84.59999999999415 L -147.49999999997436 84.6 A 9.6 9.6 0 0 1 -157.1 75L -157.09999999997441 74.99999999998997 A 9.6 9.6 0 0 0 -147.5 84.6Z " stroke="#191919" stroke-width="0.35 px" style="stroke-width:0.35;stroke-miterlimit:4;stroke-dasharray:none;stroke-linecap:square;fill:#cccce6;fill-opacity:1.0;fill-rule: evenodd"/>
<path id="Body_f0011"  d="M 147.4999999999744 84.59999999999123 L 147.4999999999744 84.59999999999123 L -147.4999999999744 84.59999999999415 L -147.49999999997436 84.6 L 147.49999999997436 84.6 Z " stroke="#191919" stroke-width="0.35 px" style="stroke-width:0.35;stroke-miterlimit:4;stroke-dasharray:none;stroke-linecap:square;fill:#cccce6;fill-opacity:1.0;fill-rule: evenodd"/>
<path id="Body_f0012"  d="M 157.09999999997441 74.99999999998997 L 157.09999999997441 74.99999999998997 A 9.6 9.6 0 0 1 147.5 84.6L 147.49999999997436 84.6 A 9.6 9.6 0 0 1 147.5 84.6Z " stroke="#191919" stroke-width="0.35 px" style="stroke-width:0.35;stroke-miterlimit:4;stroke-dasharray:none;stroke-linecap:square;fill:#cccce6;fill-opacity:1.0;fill-rule: evenodd"/>
<path id="Body_f0013"  d="M 157.09999999997441 -74.99999999998997 L 157.09999999997441 -74.99999999998997 L 157.09999999998294 74.9999999999899 L 157.1 74.99999999998978 L 157.1 -74.99999999998978 Z " stroke="#191919" stroke-width="0.35 px" style="stroke-width:0.35;stroke-miterlimit:4;stroke-dasharray:none;stroke-linecap:square;fill:#cccce6;fill-opacity:1.0;fill-rule: evenodd"/>
<path id="Body_f0014"  d="M 147.4999999999744 -84.59999999999123 L 147.4999999999744 -84.59999999999123 A 9.6 9.6 0 0 1 157.1 -75L 157.1 -74.99999999998978 A 9.6 9.6 0 0 1 157.1 -75Z " stroke="#191919" stroke-width="0.35 px" style="stroke-width:0.35;stroke-miterlimit:4;stroke-dasharray:none;stroke-linecap:square;fill:#cccce6;fill-opacity:1.0;fill-rule: evenodd"/>
<path id="Body_f0015"  d="M -147.4999999999744 -84.59999999999123 L -147.4999999999744 -84.59999999999123 L 147.4999999999744 -84.59999999999123 L 147.4999999999744 -84.59999999999123 L -147.4999999999744 -84.59999999999123 Z " stroke="#191919" stroke-width="0.35 px" style="stroke-width:0.35;stroke-miterlimit:4;stroke-dasharray:none;stroke-linecap:square;fill:#cccce6;fill-opacity:1.0;fill-rule: evenodd"/>
<path id="Body_f0016"  d="M -157.09999999997441 -74.99999999998997 L -157.09999999997441 -74.99999999998997 A 9.6 9.6 0 0 1 -147.5 -84.6L -147.4999999999744 -84.59999999999123 A 9.6 9.6 0 0 1 -147.5 -84.6Z " stroke="#191919" stroke-width="0.35 px" style="stroke-width:0.35;stroke-miterlimit:4;stroke-dasharray:none;stroke-linecap:square;fill:#cccce6;fill-opacity:1.0;fill-rule: evenodd"/>
<circle cx="-88.90000000000002" cy="-55.82499999999559" r="3.3" stroke="#191919" stroke-width="0.35 px" style="stroke-width:0.35;stroke-miterlimit:4;stroke-dasharray:none;stroke-linecap:square;fill:#cccce6"/>
<circle cx="-88.90000000000002" cy="-55.82499999999559" r="3.3" stroke="#191919" stroke-width="0.35 px" style="stroke-width:0.35;stroke-miterlimit:4;stroke-dasharray:none;stroke-linecap:square;fill:#cccce6"/>
<circle cx="88.9" cy="-55.82499999999561" r="3.3" stroke="#191919" stroke-width="0.35 px" style="stroke-width:0.35;stroke-miterlimit:4;stroke-dasharray:none;stroke-linecap:square;fill:#cccce6"/>
<circle cx="-88.89999999999999" cy="64.82500000000441" r="3.3" stroke="#191919" stroke-width="0.35 px" style="stroke-width:0.35;stroke-miterlimit:4;stroke-dasharray:none;stroke-linecap:square;fill:#cccce6"/>
<path id="Body_f0021"  d="M 81.20154210932199 -53.472077114421715 A 12.05 12.05 0 0 0 69.6778 -62L 69.67776352762384 -61.99999999999123 A 12.05 12.05 0 0 1 81.2015 -53.4721L 81.20154210932199 -53.472077114421715 Z " stroke="#191919" stroke-width="0.35 px" style="stroke-width:0.35;stroke-miterlimit:4;stroke-dasharray:none;stroke-linecap:square;fill:#cccce6;fill-opacity:1.0;fill-rule: evenodd"/>
<path id="Body_f0022"  d="M 69.67776352762384 -61.99999999999123 L -69.67776352762385 -61.99999999999123 L -69.67776352762385 -61.99999999999122 L 69.67776352762384 -61.99999999999123 L 69.67776352762384 -61.99999999999123 Z " stroke="#191919" stroke-width="0.35 px" style="stroke-width:0.35;stroke-miterlimit:4;stroke-dasharray:none;stroke-linecap:square;fill:#cccce6;fill-opacity:1.0;fill-rule: evenodd"/>
<path id="Body_f0023"  d="M 81.20154210932199 -53.472077114421715 L 81.20154210932199 -53.472077114421715 A 8.05 8.05 0 0 0 95.4265 -51.1125L 95.42647671639105 -51.112505790935856 A 8.05 8.05 0 0 1 81.2015 -53.4721Z " stroke="#191919" stroke-width="0.35 px" style="stroke-width:0.35;stroke-miterlimit:4;stroke-dasharray:none;stroke-linecap:square;fill:#cccce6;fill-opacity:1.0;fill-rule: evenodd"/>
<path id="Body_f0024"  d="M -81.201542109322 -53.472077114421694 L -81.201542109322 -53.472077114421694 A 12.05 12.05 0 0 1 -69.6778 -62L -69.67776352762385 -61.99999999999122 A 12.05 12.05 0 0 0 -81.2015 -53.4721Z " stroke="#191919" stroke-width="0.35 px" style="stroke-width:0.35;stroke-miterlimit:4;stroke-dasharray:none;stroke-linecap:square;fill:#cccce6;fill-opacity:1.0;fill-rule: evenodd"/>
<path id="Body_f0025"  d="M 95.42647671639105 -51.112505790935856 L 95.42647671639105 -51.112505790935856 L 99.68055348664629 -57.004106238397426 L 99.68055348664629 -57.004106238397426 L 95.42647671639187 -51.11250579093527 Z " stroke="#191919" stroke-width="0.35 px" style="stroke-width:0.35;stroke-miterlimit:4;stroke-dasharray:none;stroke-linecap:square;fill:#cccce6;fill-opacity:1.0;fill-rule: evenodd"/>
<path id="Body_f0026"  d="M -81.201542109322 -53.4720771144217 A 8.05 8.05 0 0 1 -95.4265 -51.1125L -95.42647671639106 -51.112505790935835 A 8.05 8.05 0 0 0 -81.2015 -53.4721L -81.201542109322 -53.472077114421694 Z " stroke="#191919" stroke-width="0.35 px" style="stroke-width:0.35;stroke-miterlimit:4;stroke-dasharray:none;stroke-linecap:square;fill:#cccce6;fill-opacity:1.0;fill-rule: evenodd"/>
<path id="Body_f0027"  d="M 109.44999999999999 -61.99999999999123 A 12.05 12.05 0 0 0 99.6806 -57.0041L 99.68055348664629 -57.004106238397426 A 12.05 12.05 0 0 1 109.45 -62L 109.44999999999999 -61.99999999999123 Z " stroke="#191919" stroke-width="0.35 px" style="stroke-width:0.35;stroke-miterlimit:4;stroke-dasharray:none;stroke-linecap:square;fill:#cccce6;fill-opacity:1.0;fill-rule: evenodd"/>
<path id="Body_f0028"  d="M -95.42647671639106 -51.112505790935835 L -99.6805534866463 -57.004106238397405 L -99.6805534866463 -57.004106238397405 L -95.42647671639106 -51.112505790935835 L -95.42647671639106 -51.112505790935835 Z " stroke="#191919" stroke-width="0.35 px" style="stroke-width:0.35;stroke-miterlimit:4;stroke-dasharray:none;stroke-linecap:square;fill:#cccce6;fill-opacity:1.0;fill-rule: evenodd"/>
<path id="Body_f0029"  d="M 109.44999999999999 -61.99999999999123 L 109.44999999999999 -61.99999999999123 L 137.45 -61.99999999999123 L 137.45 -61.99999999999123 L 109.44999999999999 -61.99999999999123 Z " stroke="#191919" stroke-width="0.35 px" style="stroke-width:0.35;stroke-miterlimit:4;stroke-dasharray:none;stroke-linecap:square;fill:#cccce6;fill-opacity:1.0;fill-rule: evenodd"/>
<path id="Body_f0030"  d="M -109.45 -61.99999999999121 L -109.45 -61.99999999999121 A 12.05 12.05 0 0 1 -99.6806 -57.0041L -99.6805534866463 -57.004106238397405 A 12.05 12.05 0 0 0 -109.45 -62Z " stroke="#191919" stroke-width="0.35 px" style="stroke-width:0.35;stroke-miterlimit:4;stroke-dasharray:none;stroke-linecap:square;fill:#cccce6;fill-opacity:1.0;fill-rule: evenodd"/>
<path id="Body_f0031"  d="M 145.5 -53.949999999991235 A 8.05 8.05 0 0 0 137.45 -62L 137.45 -61.99999999999123 A 8.05 8.05 0 0 1 145.5 -53.95L 145.5 -53.949999999991235 Z " stroke="#191919" stroke-width="0.35 px" style="stroke-width:0.35;stroke-miterlimit:4;stroke-dasharray:none;stroke-linecap:square;fill:#cccce6;fill-opacity:1.0;fill-rule: evenodd"/>
<path id="Body_f0032"  d="M -109.45 -61.99999999999121 L -137.45 -61.9999999999912 L -137.45 -61.9999999999912 L -109.45 -61.99999999999121 L -109.45 -61.99999999999121 Z " stroke="#191919" stroke-width="0.35 px" style="stroke-width:0.35;stroke-miterlimit:4;stroke-dasharray:none;stroke-linecap:square;fill:#cccce6;fill-opacity:1.0;fill-rule: evenodd"/>
<path id="Body_f0033"  d="M 145.5 -53.949999999991235 L 145.5 -53.949999999991235 L 145.5 62.95 L 145.5 62.95 L 145.5 -53.94999999999124 Z " stroke="#191919" stroke-width="0.35 px" style="stroke-width:0.35;stroke-miterlimit:4;stroke-dasharray:none;stroke-linecap:square;fill:#cccce6;fill-opacity:1.0;fill-rule: evenodd"/>
<path id="Body_f0034"  d="M -145.5 -53.9499999999912 L -145.5 -53.9499999999912 A 8.05 8.05 0 0 1 -137.45 -62L -137.45 -61.9999999999912 A 8.05 8.05 0 0 0 -145.5 -53.95Z " stroke="#191919" stroke-width="0.35 px" style="stroke-width:0.35;stroke-miterlimit:4;stroke-dasharray:none;stroke-linecap:square;fill:#cccce6;fill-opacity:1.0;fill-rule: evenodd"/>
<path id="Body_f0035"  d="M 137.45 71.0 A 8.05 8.05 0 0 0 145.5 62.95L 145.5 62.95 A 8.05 8.05 0 0 1 137.45 71L 137.45 71.0 Z " stroke="#191919" stroke-width="0.35 px" style="stroke-width:0.35;stroke-miterlimit:4;stroke-dasharray:none;stroke-linecap:square;fill:#cccce6;fill-opacity:1.0;fill-rule: evenodd"/>
<path id="Body_f0036"  d="M -145.5 -53.9499999999912 L -145.5 62.95000000000004 L -145.5 62.95000000000004 L -145.5 -53.9499999999912 L -145.5 -53.9499999999912 Z " stroke="#191919" stroke-width="0.35 px" style="stroke-width:0.35;stroke-miterlimit:4;stroke-dasharray:none;stroke-linecap:square;fill:#cccce6;fill-opacity:1.0;fill-rule: evenodd"/>
<path id="Body_f0037"  d="M 137.45 71.0 L 137.45 71.0 L 109.44999999999999 71.0 L 109.44999999999999 71.0 L 137.45 71.0 Z " stroke="#191919" stroke-width="0.35 px" style="stroke-width:0.35;stroke-miterlimit:4;stroke-dasharray:none;stroke-linecap:square;fill:#cccce6;fill-opacity:1.0;fill-rule: evenodd"/>
<path id="Body_f0038"  d="M -137.44999999999996 71.00000000000003 L -137.44999999999996 71.00000000000003 A 8.05 8.05 0 0 1 -145.5 62.95L -145.5 62.95000000000004 A 8.05 8.05 0 0 0 -137.45 71Z " stroke="#191919" stroke-width="0.35 px" style="stroke-width:0.35;stroke-miterlimit:4;stroke-dasharray:none;stroke-linecap:square;fill:#cccce6;fill-opacity:1.0;fill-rule: evenodd"/>
<path id="Body_f0039"  d="M 99.6805534866532 66.00410623841576 A 12.05 12.05 0 0 0 109.45 71L 109.44999999999999 71.0 A 12.05 12.05 0 0 1 99.6806 66.0041L 99.6805534866532 66.00410623841576 Z " stroke="#191919" stroke-width="0.35 px" style="stroke-width:0.35;stroke-miterlimit:4;stroke-dasharray:none;stroke-linecap:square;fill:#cccce6;fill-opacity:1.0;fill-rule: evenodd"/>
<path id="Body_f0040"  d="M -137.44999999999996 71.00000000000003 L -109.44999999999997 71.00000000000003 L -109.44999999999997 71.00000000000003 L -137.44999999999996 71.00000000000003 L -137.44999999999996 71.00000000000003 Z " stroke="#191919" stroke-width="0.35 px" style="stroke-width:0.35;stroke-miterlimit:4;stroke-dasharray:none;stroke-linecap:square;fill:#cccce6;fill-opacity:1.0;fill-rule: evenodd"/>
<path id="Body_f0041"  d="M 99.6805534866532 66.00410623841576 L 99.6805534866532 66.00410623841576 L 95.42647671638521 60.11250579093826 L 95.42647671638521 60.11250579093826 L 99.6805534866532 66.00410623841576 Z " stroke="#191919" stroke-width="0.35 px" style="stroke-width:0.35;stroke-miterlimit:4;stroke-dasharray:none;stroke-linecap:square;fill:#cccce6;fill-opacity:1.0;fill-rule: evenodd"/>
<path id="Body_f0042"  d="M -99.68055348665318 66.00410623841579 L -99.68055348665318 66.00410623841579 A 12.05 12.05 0 0 1 -109.45 71L -109.44999999999997 71.00000000000003 A 12.05 12.05 0 0 0 -99.6806 66.0041Z " stroke="#191919" stroke-width="0.35 px" style="stroke-width:0.35;stroke-miterlimit:4;stroke-dasharray:none;stroke-linecap:square;fill:#cccce6;fill-opacity:1.0;fill-rule: evenodd"/>
<path id="Body_f0043"  d="M 95.42647671638521 60.11250579093826 L 95.42647671638521 60.11250579093826 A 8.05 8.05 0 0 0 81.2015 62.4721L 81.20154210932199 62.4720771144305 A 8.05 8.05 0 0 1 95.4265 60.1125Z " stroke="#191919" stroke-width="0.35 px" style="stroke-width:0.35;stroke-miterlimit:4;stroke-dasharray:none;stroke-linecap:square;fill:#cccce6;fill-opacity:1.0;fill-rule: evenodd"/>
<path id="Body_f0044"  d="M -99.68055348665318 66.00410623841579 L -95.4264767163852 60.11250579093828 L -95.4264767163852 60.11250579093828 L -99.68055348665318 66.00410623841579 L -99.68055348665318 66.00410623841579 Z " stroke="#191919" stroke-width="0.35 px" style="stroke-width:0.35;stroke-miterlimit:4;stroke-dasharray:none;stroke-linecap:square;fill:#cccce6;fill-opacity:1.0;fill-rule: evenodd"/>
<path id="Body_f0045"  d="M 69.67776352762384 71.0 A 12.05 12.05 0 0 0 81.2015 62.4721L 81.20154210932199 62.4720771144305 A 12.05 12.05 0 0 1 69.6778 71L 69.67776352762384 71.0 Z " stroke="#191919" stroke-width="0.35 px" style="stroke-width:0.35;stroke-miterlimit:4;stroke-dasharray:none;stroke-linecap:square;fill:#cccce6;fill-opacity:1.0;fill-rule: evenodd"/>
<path id="Body_f0046"  d="M -95.4264767163852 60.11250579093827 A 8.05 8.05 0 0 1 -81.2015 62.4721L -81.20154210932198 62.47207711443052 A 8.05 8.05 0 0 0 -95.4265 60.1125L -95.4264767163852 60.11250579093828 Z " stroke="#191919" stroke-width="0.35 px" style="stroke-width:0.35;stroke-miterlimit:4;stroke-dasharray:none;stroke-linecap:square;fill:#cccce6;fill-opacity:1.0;fill-rule: evenodd"/>
<path id="Body_f0047"  d="M -69.67776352762382 71.00000000000001 L 69.67776352762384 71.0 L 69.67776352762384 71.0 L -69.67776352762382 71.00000000000001 L -69.67776352762382 71.00000000000001 Z " stroke="#191919" stroke-width="0.35 px" style="stroke-width:0.35;stroke-miterlimit:4;stroke-dasharray:none;stroke-linecap:square;fill:#cccce6;fill-opacity:1.0;fill-rule: evenodd"/>
<path id="Body_f0048"  d="M -69.67776352762382 71.00000000000001 L -69.67776352762382 71.00000000000001 A 12.05 12.05 0 0 1 -81.2015 62.4721L -81.20154210932198 62.47207711443052 A 12.05 12.05 0 0 0 -69.6778 71Z " stroke="#191919" stroke-width="0.35 px" style="stroke-width:0.35;stroke-miterlimit:4;stroke-dasharray:none;stroke-linecap:square;fill:#cccce6;fill-opacity:1.0;fill-rule: evenodd"/>
<circle cx="88.9" cy="64.8250000000044" r="3.3" stroke="#191919" stroke-width="0.35 px" style="stroke-width:0.35;stroke-miterlimit:4;stroke-dasharray:none;stroke-linecap:square;fill:#cccce6"/>
<circle cx="-88.90000000000002" cy="-55.82499999999559" r="3.3" stroke="#191919" stroke-width="0.35 px" style="stroke-width:0.35;stroke-miterlimit:4;stroke-dasharray:none;stroke-linecap:square;fill:#cccce6"/>
<title>b'Body'</title>
</g>
</svg>