<?xml version="1.0"?>
<!DOCTYPE svg PUBLIC "-//W3C//DTD SVG 1.1//EN" "http://www.w3.org/Graphics/SVG/1.1/DTD/svg11.dtd">
<svg width="333.54mm" height="188.53999999999996mm" viewBox="0 0 333.54 188.53999999999996" xmlns="http://www.w3.org/2000/svg" version="1.1">
<g id="Body" transform="translate(166.770000,94.270000) scale(1,-1)">
<path id="Body_f0000"  d="M -163.5 -80.00000000000004 L -163.5 80.00000000000004 L -163.5 80.00000000000004 L -163.5 -80.00000000000004 L -163.5 -80.00000000000004 Z " stroke="#191919" stroke-width="0.35 px" style="stroke-width:0.35;stroke-miterlimit:4;stroke-dasharray:none;stroke-linecap:square;fill:#cccce6;fill-opacity:1.0;fill-rule: evenodd"/>
<path id="Body_f0001"  d="M -163.5 80.00000000000004 A 11 11 0 0 0 -152.5 91L -152.5 90.99999999999999 A 11 11 0 0 1 -163.5 80L -163.5 80.00000000000004 Z " stroke="#191919" stroke-width="0.35 px" style="stroke-width:0.35;stroke-miterlimit:4;stroke-dasharray:none;stroke-linecap:square;fill:#cccce6;fill-opacity:1.0;fill-rule: evenodd"/>
<path id="Body_f0002"  d="M -152.5 -90.99999999999999 A 11 11 0 0 0 -163.5 -80L -163.5 -80.00000000000004 A 11 11 0 0 1 -152.5 -91L -152.5 -90.99999999999999 Z " stroke="#191919" stroke-width="0.35 px" style="stroke-width:0.35;stroke-miterlimit:4;stroke-dasharray:none;stroke-linecap:square;fill:#cccce6;fill-opacity:1.0;fill-rule: evenodd"/>
<path id="Body_f0003"  d="M -163.5 80.00000000000004 L -163.5 -80.00000000000004 A 11 11 0 0 1 -152.5 -91L 152.5 -90.99999999999999 A 11 11 0 0 1 163.5 -80L 163.5 80.00000000000003 A 11 11 0 0 1 152.5 91L -152.5 90.99999999999999 A 11 11 0 0 1 -163.5 80Z M -162.1 -80.00000000000004 A 9.6 9.6 0 0 1 -152.5 -89.6L 152.5 -89.6 A 9.6 9.6 0 0 1 162.1 -80L 162.1 80.00000000000001 A 9.6 9.6 0 0 1 152.5 89.6L -152.5 89.6 A 9.6 9.6 0 0 1 -162.1 80L -162.1 -80.00000000000004 Z " stroke="#191919" stroke-width="0.35 px" style="stroke-width:0.35;stroke-miterlimit:4;stroke-dasharray:none;stroke-linecap:square;fill:#cccce6;fill-opacity:1.0;fill-rule: evenodd"/>
<path id="Body_f0004"  d="M -152.5 90.99999999999999 L 152.5 90.99999999999999 L 152.5 90.99999999999999 L -152.5 90.99999999999999 L -152.5 90.99999999999999 Z " stroke="#191919" stroke-width="0.35 px" style="stroke-width:0.35;stroke-miterlimit:4;stroke-dasharray:none;stroke-linecap:square;fill:#cccce6;fill-opacity:1.0;fill-rule: evenodd"/>
<path id="Body_f0005"  d="M 152.5 -90.99999999999999 L -152.5 -90.99999999999999 L -152.5 -90.99999999999999 L 152.5 -90.99999999999999 L 152.5 -90.99999999999999 Z " stroke="#191919" stroke-width="0.35 px" style="stroke-width:0.35;stroke-miterlimit:4;stroke-dasharray:none;stroke-linecap:square;fill:#cccce6;fill-opacity:1.0;fill-rule: evenodd"/>
<path id="Body_f0006"  d="M 152.5 90.99999999999999 A 11 11 0 0 0 163.5 80L 163.5 80.00000000000003 A 11 11 0 0 1 152.5 91L 152.5 90.99999999999999 Z " stroke="#191919" stroke-width="0.35 px" style="stroke-width:0.35;stroke-miterlimit:4;stroke-dasharray:none;stroke-linecap:square;fill:#cccce6;fill-opacity:1.0;fill-rule: evenodd"/>
<path id="Body_f0007"  d="M 163.5 -80.00000000000004 A 11 11 0 0 0 152.5 -91L 152.5 -90.99999999999999 A 11 11 0 0 1 163.5 -80L 163.5 -80.00000000000004 Z " stroke="#191919" stroke-width="0.35 px" style="stroke-width:0.35;stroke-miterlimit:4;stroke-dasharray:none;stroke-linecap:square;fill:#cccce6;fill-opacity:1.0;fill-rule: evenodd"/>
<path id="Body_f0008"  d="M 163.5 80.00000000000004 L 163.5 -80.00000000000004 L 163.5 -80.00000000000004 L 163.5 80.00000000000003 L 163.5 80.00000000000003 Z " stroke="#191919" stroke-width="0.35 px" style="stroke-width:0.35;stroke-miterlimit:4;stroke-dasharray:none;stroke-linecap:square;fill:#cccce6;fill-opacity:1.0;fill-rule: evenodd"/>
<path id="Body_f0009"  d="M -162.1 -80.00000000000004 L -162.1 80.00000000000004 L -162.1 80.00000000000004 L -162.1 -80.00000000000003 L -162.1 -80.00000000000004 Z " stroke="#191919" stroke-width="0.35 px" style="stroke-width:0.35;stroke-miterlimit:4;stroke-dasharray:none;stroke-linecap:square;fill:#cccce6;fill-opacity:1.0;fill-rule: evenodd"/>
<path id="Body_f0010"  d="M -152.5 89.59999999999998 L -152.5 89.59999999999998 A 9.6 9.6 0 0 1 -162.1 80L -162.1 80.00000000000004 A 9.6 9.6 0 0 0 -152.5 89.6Z " stroke="#191919" stroke-width="0.35 px" style="stroke-width:0.35;stroke-miterlimit:4;stroke-dasharray:none;stroke-linecap:square;fill:#cccce6;fill-opacity:1.0;fill-rule: evenodd"/>
<path id="Body_f0011"  d="M 152.5 89.59999999999998 L 152.5 89.59999999999998 L -152.5 89.59999999999998 L -152.5 89.59999999999998 L 152.5 89.59999999999998 Z " stroke="#191919" stroke-width="0.35 px" style="stroke-width:0.35;stroke-miterlimit:4;stroke-dasharray:none;stroke-linecap:square;fill:#cccce6;fill-opacity:1.0;fill-rule: evenodd"/>
<path id="Body_f0012"  d="M 162.1 80.00000000000003 L 162.1 80.00000000000003 A 9.6 9.6 0 0 1 152.5 89.6L 152.5 89.59999999999998 A 9.6 9.6 0 0 1 152.5 89.6Z " stroke="#191919" stroke-width="0.35 px" style="stroke-width:0.35;stroke-miterlimit:4;stroke-dasharray:none;stroke-linecap:square;fill:#cccce6;fill-opacity:1.0;fill-rule: evenodd"/>
<path id="Body_f0013"  d="M 162.1 -80.00000000000004 L 162.1 -80.00000000000004 L 162.1 80.00000000000003 L 162.1 80.00000000000001 L 162.1 -80.00000000000004 Z " stroke="#191919" stroke-width="0.35 px" style="stroke-width:0.35;stroke-miterlimit:4;stroke-dasharray:none;stroke-linecap:square;fill:#cccce6;fill-opacity:1.0;fill-rule: evenodd"/>
<path id="Body_f0014"  d="M 152.5 -89.59999999999998 L 152.5 -89.59999999999998 A 9.6 9.6 0 0 1 162.1 -80L 162.1 -80.00000000000004 A 9.6 9.6 0 0 1 162.1 -80Z " stroke="#191919" stroke-width="0.35 px" style="stroke-width:0.35;stroke-miterlimit:4;stroke-dasharray:none;stroke-linecap:square;fill:#cccce6;fill-opacity:1.0;fill-rule: evenodd"/>
<path id="Body_f0015"  d="M -152.5 -89.59999999999998 L -152.5 -89.59999999999998 L 152.5 -89.59999999999998 L 152.5 -89.59999999999998 L -152.5 -89.59999999999998 Z " stroke="#191919" stroke-width="0.35 px" style="stroke-width:0.35;stroke-miterlimit:4;stroke-dasharray:none;stroke-linecap:square;fill:#cccce6;fill-opacity:1.0;fill-rule: evenodd"/>
<path id="Body_f0016"  d="M -162.1 -80.00000000000003 L -162.1 -80.00000000000003 A 9.6 9.6 0 0 1 -152.5 -89.6L -152.5 -89.59999999999998 A 9.6 9.6 0 0 1 -152.5 -89.6Z " stroke="#191919" stroke-width="0.35 px" style="stroke-width:0.35;stroke-miterlimit:4;stroke-dasharray:none;stroke-linecap:square;fill:#cccce6;fill-opacity:1.0;fill-rule: evenodd"/>
<circle cx="-88.90000000000002" cy="-54.82500000000001" r="3.3" stroke="#191919" stroke-width="0.35 px" style="stroke-width:0.35;stroke-miterlimit:4;stroke-dasharray:none;stroke-linecap:square;fill:#cccce6"/>
<circle cx="-88.90000000000002" cy="-54.82500000000001" r="3.3" stroke="#191919" stroke-width="0.35 px" style="stroke-width:0.35;stroke-miterlimit:4;stroke-dasharray:none;stroke-linecap:square;fill:#cccce6"/>
<circle cx="88.9" cy="-54.82500000000003" r="3.3" stroke="#191919" stroke-width="0.35 px" style="stroke-width:0.35;stroke-miterlimit:4;stroke-dasharray:none;stroke-linecap:square;fill:#cccce6"/>
<circle cx="-88.89999999999999" cy="65.82499999999999" r="3.3" stroke="#191919" stroke-width="0.35 px" style="stroke-width:0.35;stroke-miterlimit:4;stroke-dasharray:none;stroke-linecap:square;fill:#cccce6"/>
<path id="Body_f0021"  d="M 81.09035627174062 -52.872574626865685 A 12.05 12.05 0 0 0 69.4001 -62L 69.40014423130265 -61.999999999999986 A 12.05 12.05 0 0 1 81.0904 -52.8726L 81.09035627174062 -52.872574626865685 Z " stroke="#191919" stroke-width="0.35 px" style="stroke-width:0.35;stroke-miterlimit:4;stroke-dasharray:none;stroke-linecap:square;fill:#cccce6;fill-opacity:1.0;fill-rule: evenodd"/>
<path id="Body_f0022"  d="M 69.40014423130265 -61.999999999999986 L -69.40014423130266 -61.999999999999986 L -69.40014423130266 -61.99999999999997 L 69.40014423130265 -61.999999999999986 L 69.40014423130265 -61.999999999999986 Z " stroke="#191919" stroke-width="0.35 px" style="stroke-width:0.35;stroke-miterlimit:4;stroke-dasharray:none;stroke-linecap:square;fill:#cccce6;fill-opacity:1.0;fill-rule: evenodd"/>
<path id="Body_f0023"  d="M 81.09035627174062 -52.872574626865685 L 81.09035627174062 -52.872574626865685 A 8.05 8.05 0 0 0 95.7837 -50.6516L 95.78367557483989 -50.65157088470974 A 8.05 8.05 0 0 1 81.0904 -52.8726Z " stroke="#191919" stroke-width="0.35 px" style="stroke-width:0.35;stroke-miterlimit:4;stroke-dasharray:none;stroke-linecap:square;fill:#cccce6;fill-opacity:1.0;fill-rule: evenodd"/>
<path id="Body_f0024"  d="M -81.09035627174063 -52.872574626865664 L -81.09035627174063 -52.872574626865664 A 12.05 12.05 0 0 1 -69.4001 -62L -69.40014423130266 -61.99999999999997 A 12.05 12.05 0 0 0 -81.0904 -52.8726Z " stroke="#191919" stroke-width="0.35 px" style="stroke-width:0.35;stroke-miterlimit:4;stroke-dasharray:none;stroke-linecap:square;fill:#cccce6;fill-opacity:1.0;fill-rule: evenodd"/>
<path id="Body_f0025"  d="M 95.78367557483989 -50.65157088470974 L 95.78367557483989 -50.65157088470974 L 99.14586451219617 -56.19718271295007 L 99.14586451219617 -56.19718271295007 L 95.7836755748399 -50.65157088470974 Z " stroke="#191919" stroke-width="0.35 px" style="stroke-width:0.35;stroke-miterlimit:4;stroke-dasharray:none;stroke-linecap:square;fill:#cccce6;fill-opacity:1.0;fill-rule: evenodd"/>
<path id="Body_f0026"  d="M -81.09035627174063 -52.872574626865664 A 8.05 8.05 0 0 1 -95.7837 -50.6516L -95.7836755748399 -50.65157088470972 A 8.05 8.05 0 0 0 -81.0904 -52.8726L -81.09035627174063 -52.872574626865664 Z " stroke="#191919" stroke-width="0.35 px" style="stroke-width:0.35;stroke-miterlimit:4;stroke-dasharray:none;stroke-linecap:square;fill:#cccce6;fill-opacity:1.0;fill-rule: evenodd"/>
<path id="Body_f0027"  d="M 109.44999999999999 -62.0 A 12.05 12.05 0 0 0 99.1459 -56.1972L 99.14586451219617 -56.19718271295007 A 12.05 12.05 0 0 1 109.45 -62L 109.44999999999999 -62.0 Z " stroke="#191919" stroke-width="0.35 px" style="stroke-width:0.35;stroke-miterlimit:4;stroke-dasharray:none;stroke-linecap:square;fill:#cccce6;fill-opacity:1.0;fill-rule: evenodd"/>
<path id="Body_f0028"  d="M -95.7836755748399 -50.65157088470972 L -99.14586451219618 -56.197182712950045 L -99.14586451219618 -56.197182712950045 L -95.7836755748399 -50.65157088470972 L -95.7836755748399 -50.65157088470972 Z " stroke="#191919" stroke-width="0.35 px" style="stroke-width:0.35;stroke-miterlimit:4;stroke-dasharray:none;stroke-linecap:square;fill:#cccce6;fill-opacity:1.0;fill-rule: evenodd"/>
<path id="Body_f0029"  d="M 109.44999999999999 -62.0 L 109.44999999999999 -62.0 L 137.45 -62.0 L 137.45 -62.0 L 109.44999999999999 -62.0 Z " stroke="#191919" stroke-width="0.35 px" style="stroke-width:0.35;stroke-miterlimit:4;stroke-dasharray:none;stroke-linecap:square;fill:#cccce6;fill-opacity:1.0;fill-rule: evenodd"/>
<path id="Body_f0030"  d="M -109.45 -61.99999999999998 L -109.45 -61.99999999999998 A 12.05 12.05 0 0 1 -99.1459 -56.1972L -99.14586451219618 -56.197182712950045 A 12.05 12.05 0 0 0 -109.45 -62Z " stroke="#191919" stroke-width="0.35 px" style="stroke-width:0.35;stroke-miterlimit:4;stroke-dasharray:none;stroke-linecap:square;fill:#cccce6;fill-opacity:1.0;fill-rule: evenodd"/>
<path id="Body_f0031"  d="M 145.5 -53.95 A 8.05 8.05 0 0 0 137.45 -62L 137.45 -62.0 A 8.05 8.05 0 0 1 145.5 -53.95L 145.5 -53.95 Z " stroke="#191919" stroke-width="0.35 px" style="stroke-width:0.35;stroke-miterlimit:4;stroke-dasharray:none;stroke-linecap:square;fill:#cccce6;fill-opacity:1.0;fill-rule: evenodd"/>
<path id="Body_f0032"  d="M -109.45 -61.99999999999998 L -137.45 -61.99999999999997 L -137.45 -61.99999999999997 L -109.45 -61.99999999999998 L -109.45 -61.99999999999998 Z " stroke="#191919" stroke-width="0.35 px" style="stroke-width:0.35;stroke-miterlimit:4;stroke-dasharray:none;stroke-linecap:square;fill:#cccce6;fill-opacity:1.0;fill-rule: evenodd"/>
<path id="Body_f0033"  d="M 145.5 -53.95 L 145.5 -53.95 L 145.5 64.94999999999999 L 145.5 64.94999999999999 L 145.5 -53.949999999999996 Z " stroke="#191919" stroke-width="0.35 px" style="stroke-width:0.35;stroke-miterlimit:4;stroke-dasharray:none;stroke-linecap:square;fill:#cccce6;fill-opacity:1.0;fill-rule: evenodd"/>
<path id="Body_f0034"  d="M -145.5 -53.94999999999997 L -145.5 -53.94999999999997 A 8.05 8.05 0 0 1 -137.45 -62L -137.45 -61.99999999999997 A 8.05 8.05 0 0 0 -145.5 -53.95Z " stroke="#191919" stroke-width="0.35 px" style="stroke-width:0.35;stroke-miterlimit:4;stroke-dasharray:none;stroke-linecap:square;fill:#cccce6;fill-opacity:1.0;fill-rule: evenodd"/>
<path id="Body_f0035"  d="M 137.45 72.99999999999999 A 8.05 8.05 0 0 0 145.5 64.95L 145.5 64.94999999999999 A 8.05 8.05 0 0 1 137.45 73L 137.45 72.99999999999999 Z " stroke="#191919" stroke-width="0.35 px" style="stroke-width:0.35;stroke-miterlimit:4;stroke-dasharray:none;stroke-linecap:square;fill:#cccce6;fill-opacity:1.0;fill-rule: evenodd"/>
<path id="Body_f0036"  d="M -145.5 -53.94999999999997 L -145.49999999999997 64.95000000000002 L -145.49999999999997 64.95000000000002 L -145.5 -53.94999999999997 L -145.5 -53.94999999999997 Z " stroke="#191919" stroke-width="0.35 px" style="stroke-width:0.35;stroke-miterlimit:4;stroke-dasharray:none;stroke-linecap:square;fill:#cccce6;fill-opacity:1.0;fill-rule: evenodd"/>
<path id="Body_f0037"  d="M 137.45 72.99999999999999 L 137.45 72.99999999999999 L 109.44999999999999 72.99999999999999 L 109.44999999999999 72.99999999999999 L 137.45 72.99999999999999 Z " stroke="#191919" stroke-width="0.35 px" style="stroke-width:0.35;stroke-miterlimit:4;stroke-dasharray:none;stroke-linecap:square;fill:#cccce6;fill-opacity:1.0;fill-rule: evenodd"/>
<path id="Body_f0038"  d="M -137.44999999999996 73.00000000000001 L -137.44999999999996 73.00000000000001 A 8.05 8.05 0 0 1 -145.5 64.95L -145.49999999999997 64.95000000000002 A 8.05 8.05 0 0 0 -137.45 73Z " stroke="#191919" stroke-width="0.35 px" style="stroke-width:0.35;stroke-miterlimit:4;stroke-dasharray:none;stroke-linecap:square;fill:#cccce6;fill-opacity:1.0;fill-rule: evenodd"/>
<path id="Body_f0039"  d="M 99.14586451219614 67.19718271295 A 12.05 12.05 0 0 0 109.45 73L 109.44999999999999 72.99999999999999 A 12.05 12.05 0 0 1 99.1459 67.1972L 99.14586451219614 67.19718271295 Z " stroke="#191919" stroke-width="0.35 px" style="stroke-width:0.35;stroke-miterlimit:4;stroke-dasharray:none;stroke-linecap:square;fill:#cccce6;fill-opacity:1.0;fill-rule: evenodd"/>
<path id="Body_f0040"  d="M -137.44999999999996 73.00000000000001 L -109.44999999999997 73.00000000000001 L -109.44999999999997 73.00000000000001 L -137.44999999999996 73.00000000000001 L -137.44999999999996 73.00000000000001 Z " stroke="#191919" stroke-width="0.35 px" style="stroke-width:0.35;stroke-miterlimit:4;stroke-dasharray:none;stroke-linecap:square;fill:#cccce6;fill-opacity:1.0;fill-rule: evenodd"/>
<path id="Body_f0041"  d="M 99.14586451219614 67.19718271295 L 99.14586451219614 67.19718271295 L 95.78367557483992 61.65157088470973 L 95.78367557483992 61.65157088470973 L 99.14586451219614 67.19718271295 Z " stroke="#191919" stroke-width="0.35 px" style="stroke-width:0.35;stroke-miterlimit:4;stroke-dasharray:none;stroke-linecap:square;fill:#cccce6;fill-opacity:1.0;fill-rule: evenodd"/>
<path id="Body_f0042"  d="M -99.14586451219613 67.19718271295002 L -99.14586451219613 67.19718271295002 A 12.05 12.05 0 0 1 -109.45 73L -109.44999999999997 73.00000000000001 A 12.05 12.05 0 0 0 -99.1459 67.1972Z " stroke="#191919" stroke-width="0.35 px" style="stroke-width:0.35;stroke-miterlimit:4;stroke-dasharray:none;stroke-linecap:square;fill:#cccce6;fill-opacity:1.0;fill-rule: evenodd"/>
<path id="Body_f0043"  d="M 95.78367557483992 61.65157088470973 L 95.78367557483992 61.65157088470973 A 8.05 8.05 0 0 0 81.0904 63.8726L 81.0903562717406 63.87257462686565 A 8.05 8.05 0 0 1 95.7837 61.6516Z " stroke="#191919" stroke-width="0.35 px" style="stroke-width:0.35;stroke-miterlimit:4;stroke-dasharray:none;stroke-linecap:square;fill:#cccce6;fill-opacity:1.0;fill-rule: evenodd"/>
<path id="Body_f0044"  d="M -99.14586451219613 67.19718271295002 L -95.7836755748399 61.65157088470975 L -95.7836755748399 61.65157088470975 L -99.14586451219613 67.19718271295002 L -99.14586451219613 67.19718271295002 Z " stroke="#191919" stroke-width="0.35 px" style="stroke-width:0.35;stroke-miterlimit:4;stroke-dasharray:none;stroke-linecap:square;fill:#cccce6;fill-opacity:1.0;fill-rule: evenodd"/>
<path id="Body_f0045"  d="M 69.40014423130265 72.99999999999999 A 12.05 12.05 0 0 0 81.0904 63.8726L 81.0903562717406 63.87257462686565 A 12.05 12.05 0 0 1 69.4001 73L 69.40014423130265 72.99999999999999 Z " stroke="#191919" stroke-width="0.35 px" style="stroke-width:0.35;stroke-miterlimit:4;stroke-dasharray:none;stroke-linecap:square;fill:#cccce6;fill-opacity:1.0;fill-rule: evenodd"/>
<path id="Body_f0046"  d="M -95.7836755748399 61.651570884709734 A 8.05 8.05 0 0 1 -81.0904 63.8726L -81.09035627174059 63.87257462686567 A 8.05 8.05 0 0 0 -95.7837 61.6516L -95.7836755748399 61.65157088470975 Z " stroke="#191919" stroke-width="0.35 px" style="stroke-width:0.35;stroke-miterlimit:4;stroke-dasharray:none;stroke-linecap:square;fill:#cccce6;fill-opacity:1.0;fill-rule: evenodd"/>
<path id="Body_f0047"  d="M -69.40014423130263 73.0 L 69.40014423130265 72.99999999999999 L 69.40014423130265 72.99999999999999 L -69.40014423130263 73.0 L -69.40014423130263 73.0 Z " stroke="#191919" stroke-width="0.35 px" style="stroke-width:0.35;stroke-miterlimit:4;stroke-dasharray:none;stroke-linecap:square;fill:#cccce6;fill-opacity:1.0;fill-rule: evenodd"/>
<path id="Body_f0048"  d="M -69.40014423130263 73.0 L -69.40014423130263 73.0 A 12.05 12.05 0 0 1 -81.0904 63.8726L -81.09035627174059 63.87257462686567 A 12.05 12.05 0 0 0 -69.4001 73Z " stroke="#191919" stroke-width="0.35 px" style="stroke-width:0.35;stroke-miterlimit:4;stroke-dasharray:none;stroke-linecap:square;fill:#cccce6;fill-opacity:1.0;fill-rule: evenodd"/>
<circle cx="88.9" cy="65.82499999999997" r="3.3" stroke="#191919" stroke-width="0.35 px" style="stroke-width:0.35;stroke-miterlimit:4;stroke-dasharray:none;stroke-linecap:square;fill:#cccce6"/>
<circle cx="-88.90000000000002" cy="-54.82500000000001" r="3.3" stroke="#191919" stroke-width="0.35 px" style="stroke-width:0.35;stroke-miterlimit:4;stroke-dasharray:none;stroke-linecap:square;fill:#cccce6"/>
<title>b'Body'</title>
</g>
</svg>